<?xml version="1.0" encoding="UTF-8"?>
<svg width="37px" height="39px" viewBox="0 0 37 39" version="1.1" xmlns="http://www.w3.org/2000/svg" xmlns:xlink="http://www.w3.org/1999/xlink">
    <!-- Generator: Sketch 50.2 (55047) - http://www.bohemiancoding.com/sketch -->
    <title>About</title>
    <desc>Created with Sketch.</desc>
    <defs></defs>
    <g id="Page-1" stroke="none" stroke-width="1" fill="none" fill-rule="evenodd">
        <g id="Home" transform="translate(-237.000000, -615.000000)" fill="#333333" fill-rule="nonzero" stroke="#333333">
            <g id="Navigation" transform="translate(238.000000, 616.000000)">
                <g id="About">
                    <path d="M8.13953488,9.36046512 C8.13953488,14.5290698 12.3313953,18.7209302 17.5,18.7209302 C22.6686047,18.7209302 26.8604651,14.5290698 26.8604651,9.36046512 C26.8604651,4.19186047 22.6686047,0 17.5,0 C12.3313953,0 8.13953488,4.19186047 8.13953488,9.36046512 Z M24.4186047,9.36046512 C24.4186047,13.1860465 21.3255814,16.2790698 17.5,16.2790698 C13.6744186,16.2790698 10.5813953,13.1860465 10.5813953,9.36046512 C10.5813953,5.53488372 13.6744186,2.44186047 17.5,2.44186047 C21.3255814,2.44186047 24.4186047,5.53488372 24.4186047,9.36046512 Z" id="Shape"></path>
                    <path d="M24.377907,19.4602713 L23.8488372,19.3381783 L23.4011628,19.6637597 C21.6918605,20.9253876 19.6162791,21.5765504 17.5,21.5765504 C15.3837209,21.5765504 13.3081395,20.9253876 11.5988372,19.6637597 L11.1511628,19.3381783 L10.622093,19.4602713 C4.35465116,20.9253876 0,26.378876 0,32.8091085 L0,37.0416667 L35,37.0416667 L35,32.8091085 C35,26.4195736 30.6453488,20.9253876 24.377907,19.4602713 Z M32.5581395,34.5998062 L2.44186047,34.5998062 L2.44186047,32.8091085 C2.44186047,27.7218992 5.77906977,23.3265504 10.6627907,21.9835271 C10.7034884,22.0242248 10.7848837,22.0649225 10.8662791,22.1056202 C10.9883721,22.1870155 11.1104651,22.2684109 11.2325581,22.3091085 C11.3953488,22.3905039 11.5581395,22.4718992 11.6802326,22.5532946 C11.8023256,22.6346899 11.9244186,22.6753876 12.0465116,22.7567829 C12.2093023,22.8381783 12.372093,22.9195736 12.5348837,22.9602713 C12.6569767,23.000969 12.7790698,23.0823643 12.9011628,23.123062 C13.0639535,23.2044574 13.2267442,23.245155 13.3895349,23.2858527 C13.5116279,23.3265504 13.6337209,23.3672481 13.7965116,23.4079457 C13.9593023,23.4486434 14.1627907,23.4893411 14.3255814,23.5707364 C14.4476744,23.6114341 14.5697674,23.6521318 14.6918605,23.6521318 C14.8953488,23.6928295 15.0581395,23.7335271 15.2616279,23.7742248 C15.3837209,23.8149225 15.505814,23.8149225 15.627907,23.8556202 C15.8313953,23.8963178 16.0348837,23.8963178 16.2383721,23.9370155 C16.3604651,23.9370155 16.4418605,23.9777132 16.5639535,23.9777132 C16.8488372,24.0184109 17.1744186,24.0184109 17.5,24.0184109 C17.8255814,24.0184109 18.1511628,24.0184109 18.4360465,23.9777132 C18.5581395,23.9777132 18.6395349,23.9370155 18.7616279,23.9370155 C18.9651163,23.8963178 19.1686047,23.8963178 19.372093,23.8556202 C19.494186,23.8556202 19.6162791,23.8149225 19.7383721,23.7742248 C19.9418605,23.7335271 20.1046512,23.6928295 20.3081395,23.6521318 C20.4302326,23.6114341 20.5523256,23.5707364 20.6744186,23.5707364 C20.8372093,23.5300388 21.0406977,23.4893411 21.2034884,23.4079457 C21.3255814,23.3672481 21.4476744,23.3265504 21.5697674,23.2858527 C21.7325581,23.245155 21.8953488,23.1637597 22.0581395,23.123062 C22.1802326,23.0823643 22.3023256,23.000969 22.4244186,22.9602713 C22.5872093,22.878876 22.75,22.8381783 22.9127907,22.7567829 C23.0348837,22.7160853 23.1569767,22.6346899 23.2790698,22.5532946 C23.4418605,22.4718992 23.6046512,22.3905039 23.7267442,22.3091085 C23.8488372,22.2277132 23.9709302,22.1870155 24.0930233,22.1056202 C24.1744186,22.0649225 24.2151163,22.0242248 24.2965116,21.9835271 C29.2209302,23.3265504 32.5581395,27.7218992 32.5581395,32.8091085 L32.5581395,34.5998062 Z" id="Shape"></path>
                </g>
            </g>
        </g>
    </g>
</svg>