<?xml version="1.0" encoding="UTF-8"?>
<svg width="32px" height="42px" viewBox="0 0 32 42" version="1.1" xmlns="http://www.w3.org/2000/svg" xmlns:xlink="http://www.w3.org/1999/xlink">
    <!-- Generator: Sketch 50.2 (55047) - http://www.bohemiancoding.com/sketch -->
    <title>coffee</title>
    <desc>Created with Sketch.</desc>
    <defs></defs>
    <g id="Page-1" stroke="none" stroke-width="1" fill="none" fill-rule="evenodd">
        <g id="About" transform="translate(-1188.000000, -659.000000)" fill-rule="nonzero">
            <g id="Group-2" transform="translate(798.000000, 321.000000)">
                <g id="coffee" transform="translate(390.000000, 338.000000)">
                    <polygon id="XMLID_138_" fill="#DEDDE0" points="4.48356923 35.6923077 4.92307692 41.8461538 16 41.8461538 16 35.6923077"></polygon>
                    <polygon id="XMLID_169_" fill="#DEDDE0" points="16 9.84615385 2.63741538 9.84615385 3.07692308 16 16 16"></polygon>
                    <polygon id="XMLID_197_" fill="#ACABB1" points="16 35.6923077 16 41.8461538 27.0769231 41.8461538 27.5164308 35.6923077"></polygon>
                    <polygon id="XMLID_221_" fill="#ACABB1" points="16 9.84615385 16 16 28.9230769 16 29.3625846 9.84615385"></polygon>
                    <path d="M16,32 C13.2811077,32 11.0769231,29.2448 11.0769231,25.8461538 C11.0769231,22.4475077 13.2811077,19.6923077 16,19.6923077 L16,16 L3.07692308,16 L1.23076923,16 L2.46153846,35.6923077 L4.48356923,35.6923077 L16,35.6923077 L16,32 Z" id="XMLID_222_" fill="#FFDA44"></path>
                    <path d="M16,16 L16,19.6923077 C18.7188923,19.6923077 20.9230769,22.4475077 20.9230769,25.8461538 C20.9230769,29.2448 18.7188923,32 16,32 L16,35.6923077 L27.5164308,35.6923077 L29.5384615,35.6923077 L30.7692308,16 L28.9230769,16 L16,16 Z" id="XMLID_33_" fill="#FF9811"></path>
                    <path d="M20.9230769,25.8461538 C20.9230769,22.4475077 18.7188923,19.6923077 16,19.6923077 L16,32 C18.7188923,32 20.9230769,29.2448 20.9230769,25.8461538 Z" id="XMLID_223_" fill="#50412E"></path>
                    <path d="M11.0769231,25.8461538 C11.0769231,29.2448 13.2811077,32 16,32 L16,19.6923077 C13.2811077,19.6923077 11.0769231,22.4475077 11.0769231,25.8461538 Z" id="XMLID_224_" fill="#786145"></path>
                    <polygon id="XMLID_225_" fill="#50412E" points="29.3625846 9.84615385 32 9.84615385 32 4.92307692 27.0769231 4.92307692 27.0769231 0 4.92307692 0 4.92307692 4.92307692 0 4.92307692 0 9.84615385 2.63741538 9.84615385 16 9.84615385"></polygon>
                </g>
            </g>
        </g>
    </g>
</svg>