<?xml version="1.0" encoding="UTF-8"?>
<svg width="40px" height="39px" viewBox="0 0 40 39" version="1.1" xmlns="http://www.w3.org/2000/svg" xmlns:xlink="http://www.w3.org/1999/xlink">
    <!-- Generator: Sketch 50.2 (55047) - http://www.bohemiancoding.com/sketch -->
    <title>Contact</title>
    <desc>Created with Sketch.</desc>
    <defs></defs>
    <g id="Page-1" stroke="none" stroke-width="1" fill="none" fill-rule="evenodd">
        <g id="Home" transform="translate(-404.000000, -615.000000)" fill="#333333" fill-rule="nonzero" stroke="#333333">
            <g id="Navigation" transform="translate(238.000000, 616.000000)">
                <g id="Contact" transform="translate(167.000000, 0.000000)">
                    <path d="M19,0.176446667 L19,1.15080564 L19,12.8431133 L19,13.8174723 L19.974359,13.8174723 L20.9487179,13.8174723 L20.9487179,16.7405492 L20.9487179,17.7149082 L21.9230769,17.7149082 L22.8974359,17.7149082 L23.3389423,17.7149082 L23.6282051,17.3799723 L26.7491987,13.8174723 L36.5384615,13.8174723 L37.5128205,13.8174723 L37.5128205,12.8431133 L37.5128205,1.15080564 L37.5128205,0.176446667 L36.5384615,0.176446667 L19.974359,0.176446667 L19,0.176446667 Z M20.9487179,2.12516462 L35.5641026,2.12516462 L35.5641026,11.8687544 L26.3076923,11.8687544 L25.8661859,11.8687544 L25.5769231,12.2036903 L22.8974359,15.2637864 L22.8974359,12.8431133 L22.8974359,11.8687544 L21.9230769,11.8687544 L20.9487179,11.8687544 L20.9487179,2.12516462 Z M7.79487179,2.6884659 L7.10977564,3.37356205 L0.776442308,9.70689538 L0.456730769,10.0266069 L0.487179487,10.4833377 C0.935843051,16.1258895 4.1234219,22.7213838 9.54567308,28.1435941 C14.9678926,33.5658531 21.5633772,36.738171 27.2059295,37.1868633 L27.6474359,37.2325364 L27.9671474,36.9128249 L34.3004808,30.5794915 L35.0008013,29.8943954 L34.3004808,29.1940749 L27.9671474,22.8607415 L27.2820513,22.1756454 L26.5969551,22.8607415 L22.7604167,26.69728 C20.4082756,25.3563185 18.2201801,23.8012172 16.0464744,21.6275685 C13.8724822,19.45353 12.3178418,17.2814403 10.9767628,14.9288505 L14.8133013,11.0923121 L15.5136218,10.4072159 L14.8133013,9.70689538 L8.47996795,3.37356205 L7.79487179,2.6884659 Z M7.79487179,5.44407487 L12.7580128,10.4072159 L9.05849359,14.0915108 L8.54086538,14.609139 L8.89102564,15.2485621 C10.3788543,17.9802262 12.1772856,20.5139005 14.6762821,23.0129851 C17.1753555,25.5119723 19.6938264,27.3103954 22.4254808,28.7982415 L23.0649038,29.1484018 L23.5825321,28.6307736 L27.2820513,24.9312544 L32.2451923,29.8943954 L26.9471154,35.1772479 C21.9895141,34.6594736 15.9120981,31.7543979 10.9158654,26.7581774 C5.91534551,21.7576697 3.02606715,15.6868141 2.51201923,10.7269274 L7.79487179,5.44407487 Z" id="Shape"></path>
                </g>
            </g>
        </g>
    </g>
</svg>