<?xml version="1.0" encoding="UTF-8"?>
<svg width="43px" height="43px" viewBox="0 0 43 43" version="1.1" xmlns="http://www.w3.org/2000/svg" xmlns:xlink="http://www.w3.org/1999/xlink">
    <!-- Generator: Sketch 50.2 (55047) - http://www.bohemiancoding.com/sketch -->
    <title>Group</title>
    <desc>Created with Sketch.</desc>
    <defs>
        <polygon id="path-1" points="0.0280434783 0.0532826087 42.9476522 0.0532826087 42.9476522 43 0.0280434783 43"></polygon>
    </defs>
    <g id="Page-1" stroke="none" stroke-width="1" fill="none" fill-rule="evenodd">
        <g id="About" transform="translate(-1119.000000, -658.000000)">
            <g id="Group-2" transform="translate(798.000000, 321.000000)">
                <g id="Group" transform="translate(321.000000, 337.000000)">
                    <mask id="mask-2" fill="white">
                        <use xlink:href="#path-1"></use>
                    </mask>
                    <g id="Clip-2"></g>
                    <path d="M42.1371957,19.6140761 L23.3859239,0.863271739 C22.3067174,-0.216869565 20.5554022,-0.216869565 19.4743261,0.863271739 L15.5809565,4.75757609 L20.5198804,9.69696739 C21.6677935,9.30903261 22.9844348,9.56936957 23.8991196,10.4840543 C24.819413,11.4048152 25.0769457,12.7322065 24.679663,13.8843261 L29.4400435,18.6447065 C30.592163,18.2474239 31.9204891,18.5040217 32.8407826,19.4257174 C34.1261087,20.7105761 34.1261087,22.7937391 32.8407826,24.0795326 C31.5545217,25.3657935 29.4718261,25.3657935 28.1850978,24.0795326 C27.2180652,23.1120326 26.9792283,21.691163 27.4690543,20.50025 L23.028837,16.0605 L23.028837,27.743413 C23.3419891,27.898587 23.6378478,28.1056413 23.8991196,28.3659783 C25.1844457,29.6513043 25.1844457,31.734 23.8991196,33.0211957 C22.6137935,34.3060543 20.5296957,34.3060543 19.2453043,33.0211957 C17.9599783,31.734 17.9599783,29.6513043 19.2453043,28.3659783 C19.562663,28.0486196 19.9309674,27.8083804 20.3231087,27.6475978 L20.3231087,15.85625 C19.9309674,15.6959348 19.5635978,15.4575652 19.2453043,15.138337 C18.2717283,14.1652283 18.0375652,12.7359457 18.5367391,11.5403587 L13.6674565,6.6701413 L0.809521739,19.5271413 C-0.270152174,20.6082174 -0.270152174,22.3595326 0.809521739,23.4396739 L19.5617283,42.1904783 C20.6414022,43.2701522 22.39225,43.2701522 23.4737935,42.1904783 L42.1371957,23.5266087 C43.2178043,22.4464674 43.2178043,20.69375 42.1371957,19.6140761" id="Fill-1" fill="#DE4C36" mask="url(#mask-2)"></path>
                </g>
            </g>
        </g>
    </g>
</svg>