<?xml version="1.0" encoding="UTF-8"?>
<svg width="38px" height="38px" viewBox="0 0 38 38" version="1.1" xmlns="http://www.w3.org/2000/svg" xmlns:xlink="http://www.w3.org/1999/xlink">
    <!-- Generator: Sketch 50.2 (55047) - http://www.bohemiancoding.com/sketch -->
    <title>Group</title>
    <desc>Created with Sketch.</desc>
    <defs>
        <polygon id="path-1" points="8.31509847e-05 0.0600350109 37.939965 0.0600350109 37.939965 37.9950109 8.31509847e-05 37.9950109"></polygon>
    </defs>
    <g id="Page-1" stroke="none" stroke-width="1" fill="none" fill-rule="evenodd">
        <g id="Home" transform="translate(-521.000000, -616.000000)">
            <g id="Navigation" transform="translate(238.000000, 616.000000)">
                <g id="Group" transform="translate(283.000000, 0.000000)">
                    <g id="Group-3">
                        <mask id="mask-2" fill="white">
                            <use xlink:href="#path-1"></use>
                        </mask>
                        <g id="Clip-2"></g>
                        <path d="M18.9700656,0.059868709 C13.8181138,0.059868709 13.1721138,0.081571116 11.1488009,0.174035011 C9.12956236,0.266249453 7.75058643,0.58687965 6.54406565,1.05576805 C5.29655142,1.54053829 4.23862144,2.18919912 3.18401751,3.24380306 C2.12941357,4.298407 1.48075274,5.35642013 0.996065646,6.6038512 C0.52692779,7.81053829 0.206297593,9.18951422 0.114249453,11.2086696 C0.021868709,13.2319825 8.31509847e-05,13.8778993 8.31509847e-05,19.0298512 C8.31509847e-05,24.1819694 0.021868709,24.8278862 0.114249453,26.8511991 C0.206297593,28.8703545 0.52692779,30.2493304 0.996065646,31.4560175 C1.48075274,32.7034486 2.12941357,33.7614617 3.18401751,34.8160656 C4.23862144,35.8706696 5.29655142,36.5193304 6.54406565,37.0041007 C7.75058643,37.4729891 9.12956236,37.7936193 11.1488009,37.8858337 C13.1721138,37.9781313 13.8181138,38 18.9700656,38 C24.1220175,38 24.7681007,37.9781313 26.7914136,37.8858337 C28.8105689,37.7936193 30.1895449,37.4729891 31.3961488,37.0041007 C32.643663,36.5193304 33.7015098,35.8706696 34.7561138,34.8160656 C35.8107177,33.7614617 36.4593786,32.7034486 36.9441488,31.4560175 C37.4132035,30.2493304 37.7338337,28.8703545 37.825965,26.8511991 C37.9183457,24.8278862 37.9400481,24.1819694 37.9400481,19.0298512 C37.9400481,13.8778993 37.9183457,13.2319825 37.825965,11.2086696 C37.7338337,9.18951422 37.4132035,7.81053829 36.9441488,6.6038512 C36.4593786,5.35642013 35.8107177,4.298407 34.7561138,3.24380306 C33.7015098,2.18919912 32.643663,1.54053829 31.3961488,1.05576805 C30.1895449,0.58687965 28.8105689,0.266249453 26.7914136,0.174035011 C24.7681007,0.081571116 24.1220175,0.059868709 18.9700656,0.059868709 M18.9700656,3.47787309 C24.035291,3.47787309 24.6351422,3.49716411 26.6355886,3.58838074 C28.485116,3.67277899 29.4895799,3.98193435 30.1580306,4.24161488 C31.0435886,4.58577681 31.6755361,4.99687527 32.3392473,5.66066958 C33.0032079,6.32454705 33.4143063,6.95641138 33.758302,7.84188621 C34.0179825,8.51033698 34.3271379,9.51488403 34.4115361,11.3643282 C34.5027527,13.3647746 34.5221269,13.9646258 34.5221269,19.0298512 C34.5221269,24.0952429 34.5027527,24.6950941 34.4115361,26.6953742 C34.3271379,28.5449847 34.0179825,29.5495317 33.758302,30.2179825 C33.4143063,31.1033742 33.0032079,31.7353217 32.3392473,32.3991991 C31.6755361,33.0629934 31.0435886,33.4740919 30.1580306,33.8181707 C29.4895799,34.0779344 28.485116,34.3870897 26.6355886,34.4713217 C24.6354748,34.5627046 24.0357068,34.5819125 18.9700656,34.5819125 C13.9044245,34.5819125 13.3046565,34.5627046 11.3045427,34.4713217 C9.45509847,34.3870897 8.45055142,34.0779344 7.78210066,33.8181707 C6.89662582,33.4740919 6.26467834,33.0629934 5.60088403,32.3991991 C4.93717287,31.7353217 4.5260744,31.1033742 4.18191247,30.2179825 C3.9221488,29.5495317 3.61307659,28.5449847 3.52859519,26.6953742 C3.43746171,24.6950941 3.41808753,24.0952429 3.41808753,19.0298512 C3.41808753,13.9646258 3.43746171,13.3647746 3.52859519,11.3643282 C3.61307659,9.51488403 3.9221488,8.51033698 4.18191247,7.84188621 C4.5260744,6.95641138 4.93717287,6.32454705 5.60088403,5.66066958 C6.26467834,4.99687527 6.89662582,4.58577681 7.78210066,4.24161488 C8.45055142,3.98193435 9.45509847,3.67277899 11.3045427,3.58838074 C13.3049891,3.49716411 13.9048403,3.47787309 18.9700656,3.47787309" id="Fill-1" fill="#333333" mask="url(#mask-2)"></path>
                    </g>
                    <path d="M18.9700656,25.3532341 C15.4778074,25.3532341 12.6466827,22.5221926 12.6466827,19.0298512 C12.6466827,15.537593 15.4778074,12.7065514 18.9700656,12.7065514 C22.462407,12.7065514 25.2934486,15.537593 25.2934486,19.0298512 C25.2934486,22.5221926 22.462407,25.3532341 18.9700656,25.3532341 M18.9700656,9.28854705 C13.5901138,9.28854705 9.22876149,13.6499825 9.22876149,19.0298512 C9.22876149,24.4099694 13.5901138,28.7712385 18.9700656,28.7712385 C24.3500175,28.7712385 28.7113698,24.4099694 28.7113698,19.0298512 C28.7113698,13.6499825 24.3500175,9.28854705 18.9700656,9.28854705" id="Fill-4" fill="#333333"></path>
                    <path d="M31.3727834,8.90364114 C31.3727834,10.1608009 30.3536018,11.1800656 29.0963589,11.1800656 C27.8391991,11.1800656 26.8199344,10.1608009 26.8199344,8.90364114 C26.8199344,7.64639825 27.8391991,6.62721663 29.0963589,6.62721663 C30.3536018,6.62721663 31.3727834,7.64639825 31.3727834,8.90364114" id="Fill-5" fill="#333333"></path>
                </g>
            </g>
        </g>
    </g>
</svg>