<?xml version="1.0" encoding="UTF-8"?>
<svg width="38px" height="38px" viewBox="0 0 38 38" version="1.1" xmlns="http://www.w3.org/2000/svg" xmlns:xlink="http://www.w3.org/1999/xlink">
    <!-- Generator: Sketch 50.2 (55047) - http://www.bohemiancoding.com/sketch -->
    <title>LinkedIn</title>
    <desc>Created with Sketch.</desc>
    <defs></defs>
    <g id="Page-1" stroke="none" stroke-width="1" fill="none" fill-rule="evenodd">
        <g id="Home" transform="translate(-463.000000, -616.000000)">
            <g id="Navigation" transform="translate(238.000000, 616.000000)">
                <g id="LinkedIn" transform="translate(225.000000, 0.000000)">
                    <path d="M16,15.3492642 L20.1960897,15.3492642 L20.1960897,17.2751366 L20.25676,17.2751366 C20.8405068,16.1674935 22.2687187,15 24.3979186,15 C28.8309504,15 29.6499996,17.9162742 29.6499996,21.7098082 L29.6499996,29.4346143 L25.2727188,29.4346143 L25.2727188,22.5846085 C25.2727188,20.9514293 25.2448433,18.850105 22.9984021,18.850105 C20.7199861,18.850105 20.3723616,20.6300407 20.3723616,22.4681871 L20.3723616,29.4346143 L16,29.4346143 L16,15.3492642" id="Fill-7" fill="#333333"></path>
                    <path d="M11.5966764,8 C13.0282849,8 14.1900001,9.16255331 14.1900001,10.595 C14.1900001,12.0282849 13.0282849,13.1908382 11.5966764,13.1908382 C10.1592006,13.1908382 9,12.0282849 9,10.595 C9,9.16255331 10.1592006,8 11.5966764,8 Z M9.3553876,29.557946 L13.8354506,29.557946 L13.8354506,15.1580427 L9.3553876,15.1580427 L9.3553876,29.557946 Z" id="Fill-6" fill="#333333"></path>
                    <rect id="Rectangle-6" stroke="#333333" stroke-width="3.3" x="1.65" y="1.65" width="34.7" height="34.7" rx="2"></rect>
                </g>
            </g>
        </g>
    </g>
</svg>