<?xml version="1.0" encoding="UTF-8"?>
<svg width="80px" height="80px" viewBox="0 0 80 80" version="1.1" xmlns="http://www.w3.org/2000/svg" xmlns:xlink="http://www.w3.org/1999/xlink">
    <!-- Generator: Sketch 50.2 (55047) - http://www.bohemiancoding.com/sketch -->
    <title>Logo</title>
    <desc>Created with Sketch.</desc>
    <defs></defs>
    <g id="Page-1" stroke="none" stroke-width="1" fill="none" fill-rule="evenodd">
        <g id="Home" transform="translate(-43.000000, -36.000000)">
            <g id="Logo" transform="translate(43.000000, 36.000000)">
                <rect id="Rectangle-2" stroke="#333333" stroke-width="4" fill="#FFFFFF" x="2" y="2" width="76" height="76" rx="5"></rect>
                <path d="M19.8819703,48.6710037 C19.993495,48.5315978 20.1328988,48.4618959 20.3001859,48.4618959 C20.4953541,48.4618959 20.6626387,48.5176574 20.8020446,48.6291822 C21.4433118,49.1310434 22.11245,49.5353145 22.8094796,49.8420074 C23.5065091,50.1487004 24.3429319,50.3020446 25.3187732,50.3020446 C26.9358817,50.3020446 28.1974862,49.7235188 29.1036245,48.5664498 C30.0097629,47.4093808 30.4628253,45.659863 30.4628253,43.3178439 L30.4628253,25.6273234 C30.4628253,25.4321552 30.5185868,25.278811 30.6301115,25.1672862 C30.7416362,25.0557615 30.8949804,25 31.0901487,25 L34.394052,25 C34.5892203,25 34.7425645,25.0557615 34.8540892,25.1672862 C34.9656139,25.278811 35.0213755,25.4321552 35.0213755,25.6273234 L35.0213755,43.4851301 C35.0213755,47.2769706 34.1710122,50.0859574 32.4702602,51.9121747 C30.7695082,53.738392 28.4135838,54.651487 25.4024164,54.651487 C23.8131891,54.651487 22.3982404,54.3935899 21.1575279,53.8777881 C19.9168154,53.3619863 18.9200781,52.6719374 18.1672862,51.8076208 C18.0557615,51.6682149 18,51.5148707 18,51.3475836 C18,51.1802966 18.0557615,51.0408928 18.1672862,50.929368 L19.8819703,48.6710037 Z M40.8973048,54.8187732 C40.2002753,54.8187732 39.6008389,54.5678464 39.0989777,54.0659851 C38.5971164,53.5641239 38.3461896,52.9646875 38.3461896,52.267658 C38.3461896,51.5427473 38.5971164,50.9363407 39.0989777,50.4484201 C39.6008389,49.9604994 40.2002753,49.7165428 40.8973048,49.7165428 C41.6222155,49.7165428 42.2286221,49.9604994 42.7165428,50.4484201 C43.2044634,50.9363407 43.4484201,51.5427473 43.4484201,52.267658 C43.4484201,52.9646875 43.2044634,53.5641239 42.7165428,54.0659851 C42.2286221,54.5678464 41.6222155,54.8187732 40.8973048,54.8187732 Z M62.3726766,50.1765799 C62.5678448,50.1765799 62.721189,50.2323414 62.8327138,50.3438662 C62.9442385,50.4553909 63,50.6087351 63,50.8039033 L63,53.6477695 C63,53.8429378 62.9442385,53.996282 62.8327138,54.1078067 C62.721189,54.2193314 62.5678448,54.2750929 62.3726766,54.2750929 L48.2788104,54.2750929 C48.0836421,54.2750929 47.930298,54.2193314 47.8187732,54.1078067 C47.7072485,53.996282 47.651487,53.8429378 47.651487,53.6477695 L47.651487,25.6273234 C47.651487,25.4321552 47.7072485,25.278811 47.8187732,25.1672862 C47.930298,25.0557615 48.0836421,25 48.2788104,25 L51.5827138,25 C51.777882,25 51.9312262,25.0557615 52.0427509,25.1672862 C52.1542757,25.278811 52.2100372,25.4321552 52.2100372,25.6273234 L52.2100372,50.1765799 L62.3726766,50.1765799 Z" id="J.L" fill="#333333"></path>
            </g>
        </g>
    </g>
</svg>