<?xml version="1.0" encoding="UTF-8"?>
<svg width="44px" height="43px" viewBox="0 0 44 43" version="1.1" xmlns="http://www.w3.org/2000/svg" xmlns:xlink="http://www.w3.org/1999/xlink">
    <!-- Generator: Sketch 50.2 (55047) - http://www.bohemiancoding.com/sketch -->
    <title>planet-logo</title>
    <desc>Created with Sketch.</desc>
    <defs></defs>
    <g id="Page-1" stroke="none" stroke-width="1" fill="none" fill-rule="evenodd">
        <g id="About" transform="translate(-1056.000000, -658.000000)">
            <g id="Group-2" transform="translate(798.000000, 321.000000)">
                <g id="planet-logo" transform="translate(258.000000, 337.000000)">
                    <path d="M12.3025031,1.98665298 C17.0061027,-0.649767967 25.993809,-0.649767967 30.6974086,1.98665298 C30.9164702,2.18443532 31.2462546,2.27167146 31.5067269,2.42813142 C32.0234333,2.67182752 32.4484887,3.00708624 32.9783511,3.23753799 C33.1871704,3.49474333 33.5290513,3.61879877 33.7877577,3.82620534 C34.6597659,4.40127515 35.3892649,5.11885421 36.2158891,5.73930801 C36.7410719,6.26872895 37.1892608,6.87523203 37.7610637,7.35803285 C38.0762793,7.90122793 38.5272053,8.30871253 38.8647598,8.82965708 C39.1695565,9.23617043 39.3934743,9.72338604 39.7477166,10.0805421 C39.8850164,10.5073634 40.1538768,10.8026242 40.3362957,11.1842382 C40.5413183,11.5433368 40.6787947,11.9699815 40.924963,12.2879343 C41.8565708,14.4712218 42.6182977,16.8243018 42.8380657,19.7195175 C42.8841561,19.9431704 42.7438542,20.3533039 42.911616,20.4552854 C42.911616,21.0194066 42.911616,21.5835277 42.911616,22.1476489 C42.7438542,22.2496304 42.8841561,22.6598522 42.8380657,22.8835051 C42.6182977,25.7786324 41.8565708,28.1317125 40.924963,30.315 C40.6787947,30.6330411 40.5413183,31.0596858 40.3362957,31.4186961 C40.1538768,31.8003101 39.8849281,32.0955708 39.7477166,32.5223922 C39.3934743,32.8795483 39.1695565,33.3667639 38.8647598,33.7732772 C38.5272053,34.2941335 38.0762793,34.7017064 37.7610637,35.2449014 C37.1892608,35.7277906 36.7410719,36.3342053 36.2158891,36.8636263 C35.3892649,37.4839918 34.6597659,38.2016591 33.7877577,38.776729 C33.5290513,38.9841355 33.1871704,39.108191 32.9783511,39.365308 C32.4484887,39.5957598 32.0234333,39.9310185 31.5067269,40.1747146 C31.2462546,40.3311745 30.9164702,40.4184107 30.6974086,40.616193 C25.993809,43.252614 17.0061027,43.252614 12.3025031,40.616193 C12.0833532,40.4184107 11.7535688,40.3311745 11.4930965,40.1747146 C10.9764784,39.9310185 10.5513347,39.5957598 10.0214723,39.365308 C9.81265298,39.108191 9.47077207,38.9841355 9.21206571,38.776729 C8.34005749,38.2016591 7.61055852,37.4839918 6.78393429,36.8636263 C6.25866324,36.3342053 5.81056263,35.7277906 5.23875975,35.2449014 C4.92354415,34.7017064 4.47261807,34.2941335 4.13506366,33.7732772 C3.83026694,33.3667639 3.60626078,32.8795483 3.25210678,32.5223922 C3.11480698,32.0955708 2.84594661,31.8003101 2.66343943,31.4186961 C2.45841684,31.0596858 2.32094045,30.6330411 2.07477207,30.315 C1.14316427,28.1317125 0.381437372,25.7786324 0.161669405,22.8835051 C0.115755647,22.6596756 0.256057495,22.2494538 0.0882956879,22.1474723 C0.0882956879,21.5833511 0.0882956879,21.0193183 0.0882956879,20.4551088 C0.256057495,20.3531273 0.115755647,19.9429938 0.161845996,19.7193409 C0.381525667,16.8241253 1.14334086,14.4710452 2.07494867,12.2877577 C2.32111704,11.9698049 2.45859343,11.5431602 2.66361602,11.1840616 C2.8461232,10.8024476 3.11498357,10.5071869 3.25228337,10.0803655 C3.60643737,9.72329774 3.83044353,9.23599384 4.13524025,8.82948049 C4.47279466,8.30862423 4.92372074,7.90105133 5.23893634,7.35785626 C5.81073922,6.87496715 6.25883984,6.26846407 6.78411088,5.73913142 C7.61073511,5.11876591 8.34023409,4.40109856 9.2122423,3.82602875 C9.47086037,3.61862218 9.81274127,3.49456674 10.0216489,3.2373614 C10.5515113,3.00690965 10.9765667,2.67165092 11.4932731,2.42795483 C11.7536571,2.27167146 12.0834415,2.18443532 12.3025031,1.98665298 Z M20.249115,0.588667351 C16.0998357,0.829626283 13.031384,2.15150103 10.3158501,3.82620534 C10.0288891,4.0051807 9.69645585,4.13886037 9.50644353,4.41487269 C9.00571869,4.62536961 8.67134292,5.00221561 8.25555852,5.29782957 C7.87473922,5.62823203 7.44950719,5.91422177 7.15186242,6.32797536 C6.18352361,7.10100411 5.41747023,8.07640657 4.72373101,9.12403491 C4.34759138,9.45911704 4.11925873,9.94209446 3.84077413,10.3749199 C3.63531006,10.733577 3.37263039,11.0350185 3.25210678,11.478616 C2.96841273,11.7590431 2.82475565,12.1795072 2.66343943,12.5823121 C1.67947228,14.7132402 0.908827515,17.0574908 0.750336756,20.0138953 C0.582574949,20.1159651 0.722876797,20.5260986 0.676786448,20.7496632 C0.676786448,21.1175914 0.676786448,21.4854312 0.676786448,21.8533593 C0.722965092,22.0770123 0.582574949,22.4871458 0.750336756,22.5891273 C0.90873922,25.5455318 1.67938398,27.8897823 2.66343943,30.0207105 C2.82475565,30.4235154 2.96841273,30.8439795 3.25210678,31.1244066 C3.37263039,31.5680041 3.63531006,31.8694456 3.84077413,32.2281027 C4.11925873,32.6608398 4.34759138,33.1438172 4.72373101,33.4789877 C5.41747023,34.5265277 6.18352361,35.5019302 7.15186242,36.2749589 C7.44950719,36.6887125 7.87473922,36.9747023 8.25555852,37.3051047 C8.67125462,37.6007187 9.00563039,37.9775647 9.50644353,38.1880616 C9.69645585,38.4640739 10.0288891,38.5976653 10.3158501,38.776729 C13.031384,40.451345 16.0998357,41.7732197 20.249115,42.0141786 C20.9119507,42.1367331 22.087961,42.1367331 22.7507967,42.0141786 C26.8999877,41.7732197 29.9684394,40.451345 32.6840616,38.776729 C32.9710226,38.5976653 33.3034559,38.4640739 33.4933799,38.1880616 C33.994193,37.9775647 34.3285688,37.6007187 34.7442649,37.3051047 C35.1250842,36.9747023 35.5504045,36.6887125 35.847961,36.2749589 C36.8162998,35.5019302 37.5823532,34.5265277 38.2760924,33.4789877 C38.652232,33.1438172 38.8805647,32.6608398 39.1590493,32.2281027 C39.3644251,31.8694456 39.627193,31.5680041 39.7477166,31.1244066 C40.0314107,30.8439795 40.1750678,30.4235154 40.3362957,30.0207105 C41.3203511,27.8897823 42.0909076,25.5455318 42.2493984,22.5891273 C42.4171602,22.4871458 42.2768583,22.0770123 42.3229487,21.8533593 C42.3229487,21.4854312 42.3229487,21.1175914 42.3229487,20.7496632 C42.2768583,20.5260103 42.4171602,20.1158768 42.2493984,20.0138953 C42.0909076,17.0574908 41.3203511,14.7132402 40.3362957,12.5823121 C40.1750678,12.1795072 40.0314107,11.7590431 39.7477166,11.478616 C39.627193,11.0350185 39.3644251,10.733577 39.1590493,10.3749199 C38.8805647,9.94218275 38.652232,9.45920534 38.2760924,9.12403491 C37.5823532,8.07640657 36.8162998,7.10100411 35.847961,6.32797536 C35.5504045,5.91431006 35.1250842,5.62832033 34.7442649,5.29782957 C34.3285688,5.00221561 33.994193,4.62536961 33.4933799,4.41487269 C33.3034559,4.13886037 32.9710226,4.00526899 32.6840616,3.82620534 C29.9684394,2.15158932 26.8999877,0.829626283 22.7507967,0.588667351 C22.087961,0.466112936 20.912039,0.466112936 20.249115,0.588667351 Z" id="Shape" fill="#577FA2"></path>
                    <path d="M16.8644764,17.0704702 C15.8271786,15.5107269 14.7378747,14.1415257 14.7306345,11.62554 C14.7165955,6.73122177 16.9864127,1.78913552 21.7207392,1.1036961 C21.8227207,1.27145791 22.2329425,1.13115606 22.4565072,1.17724641 C26.5404476,1.48354415 29.6119014,2.80241684 32.3897721,4.41478439 C32.5986797,4.67198973 32.9405606,4.79604517 33.1991786,5.00345175 C33.4073799,5.11408624 33.5126283,5.32767351 33.787846,5.37137988 C34.7436468,6.20595072 35.7024497,7.0376961 36.5838172,7.94670021 C36.8990329,8.48989528 37.3500472,8.89746817 37.6875133,9.41832444 C37.9923101,9.82483778 38.2163162,10.3121417 38.5704702,10.6692094 C38.70777,11.0960308 38.9767187,11.3912916 39.1591376,11.7729055 C39.3641602,12.1320041 39.5016366,12.5586489 39.7478049,12.8766016 C42.2116961,17.322731 42.2116078,25.2802033 39.7478049,29.7263326 C39.5016366,30.0442854 39.3641602,30.4709302 39.1591376,30.8300287 C38.9767187,31.2115544 38.70777,31.5068152 38.5704702,31.9337248 C38.2163162,32.2907926 37.9923101,32.7780082 37.6875133,33.1845216 C37.3500472,33.7053778 36.8990329,34.1129507 36.5838172,34.6561458 C35.7024497,35.5651499 34.7436468,36.3968953 33.787846,37.2314661 C33.5126283,37.2750842 33.4073799,37.4886715 33.1991786,37.599306 C32.9405606,37.8067125 32.5986797,37.9308563 32.3897721,38.1879733 C29.8183368,39.6879405 26.9748624,40.9157803 23.3394641,41.3518727 C26.7761971,39.8342464 28.6138953,36.7177618 29.299423,32.4487536 C29.4683326,32.2987392 29.3260883,31.8376591 29.3730616,31.5657967 C29.4661253,28.3333799 28.6740246,25.986039 27.1656694,24.3549528 C26.8775606,24.0053901 26.5587248,23.6865544 26.2090739,23.3984456 C23.7044784,21.2676057 20.3869446,19.9495277 17.7474333,17.9535154 C17.4838706,17.6283224 17.1895811,17.3340329 16.8644764,17.0704702 Z M29.299423,9.34459754 C27.8588789,8.18545175 26.5561643,6.88829979 24.0016817,6.84291581 C23.269269,5.95006982 20.3106571,4.78439014 20.1755647,6.62217659 C20.0949507,7.71933881 21.3203183,8.42349692 21.7207392,9.27104723 C22.4043244,10.7179487 22.5283799,12.2934969 23.4131027,12.9500637 C22.4407023,14.4131232 22.7739302,19.3182136 24.6638994,19.1307618 C25.545885,19.0433491 25.2442669,17.8692813 25.6204949,17.1441088 C26.0224168,18.3119076 26.7629528,19.1410041 27.6806982,19.7929795 C27.9403758,20.0983943 28.3673737,20.6256078 28.7108439,20.602386 C28.3971294,20.4009836 28.215152,20.0679322 27.9014374,19.8666181 C26.9280657,18.5835051 26.1944168,17.0607577 25.473306,15.525384 C24.7952834,16.1472505 24.6641643,17.3160205 24.4431602,18.3949938 C23.8037228,17.9798275 23.6100903,17.118768 23.486653,16.1876016 C23.486653,15.7951273 23.486653,15.4027413 23.486653,15.0103552 C23.3859959,14.1743717 24.1764189,13.5653963 24.0016817,12.7294127 C23.9392567,12.4303552 23.4921273,12.0926242 23.3394641,11.8464559 C22.8549856,11.0648624 22.7002916,9.98535934 22.235768,9.0503963 C21.7537618,8.0799384 20.8513799,7.45710062 20.8377823,6.47498768 C21.9287639,6.13045791 22.9487556,7.03628337 23.6338419,7.57868378 C25.7511725,7.53983368 26.9379548,8.40009856 28.0486263,9.27104723 C29.9363881,10.7513244 30.7288419,12.3410883 31.801193,14.6423388 C32.2356961,15.5749179 32.7053409,17.1554107 33.4199179,17.6591376 C34.1074764,18.1437926 34.995731,18.1919138 35.7008604,18.6156448 C36.3906263,19.0301047 37.0453388,19.3266899 37.613963,20.0136304 C36.3463018,19.9477618 35.3532402,20.1564928 34.5971643,20.6022977 C34.9129979,21.597037 35.7585175,22.1771396 36.6574559,22.662501 C37.5510965,23.1449487 38.4544497,23.664922 39.1591376,24.134037 C38.4378501,22.6479322 36.7696797,22.1087105 35.774499,20.896499 C36.6907433,20.7335934 37.6095483,20.5732485 38.4969199,20.3814702 C37.5308768,18.7231889 35.8382485,17.7914928 33.9349466,17.0703819 C32.5742218,14.8011828 31.8892238,11.8562567 30.0352793,10.0802772 C29.820809,9.80435318 29.5755236,9.55906776 29.299423,9.34459754 Z M24.0016817,8.82956879 C24.1603491,9.28402669 24.5664209,9.49116838 24.6638994,10.0068152 C25.401963,9.75137577 24.897,8.55655852 24.0016817,8.82956879 Z" id="Shape" fill="#FFA230"></path>
                    <path d="M21.7207392,1.15186735 C21.9443922,1.39035686 22.3545257,0.664380166 22.4565072,1.53244544 C22.2329425,1.29395593 21.8227207,2.01993262 21.7207392,1.15186735 Z" id="Shape" fill="#FFCE92"></path>
                    <path d="M12.8911704,3.16389938 C14.6682094,2.41471047 16.502729,1.72291376 18.7039405,1.39798563 C18.7648645,1.6115729 18.2375626,1.75010883 17.8945339,1.98665298 C15.6523532,3.53253388 14.1118583,6.38713347 13.774039,9.93326489 C13.6038049,10.2045092 13.748345,10.7905277 13.7004887,11.1841499 C13.7441068,19.1116016 20.6415893,20.1854538 25.1053778,23.6927351 C25.3689405,24.0178398 25.66323,24.3122177 25.9883347,24.575692 C26.9924333,25.9667023 28.1762136,27.6148296 28.2693655,30.0941725 C28.3812361,33.073269 27.5061376,36.5526489 25.9883347,38.1879733 C25.7123224,38.4024435 25.467037,38.647729 25.2525667,38.9237413 C24.1102854,40.1310965 22.7758727,41.1177125 20.8377823,41.3518727 C18.0833101,41.6847474 15.0027618,40.1669446 12.8911704,39.4388583 C12.6720205,39.241076 12.3422361,39.1537515 12.0817639,38.9973799 C11.5650575,38.7536838 11.1400021,38.4184251 10.6101396,38.1879733 C10.4013203,37.9308563 10.0594394,37.8067125 9.80073306,37.599306 C8.92872485,37.0242361 8.19922587,36.3066571 7.37260164,35.6862916 C7.07840041,35.3181869 6.80132854,34.9331294 6.41609446,34.6561458 C6.10087885,34.1129507 5.64995277,33.7053778 5.31239836,33.1845216 C5.00760164,32.7780082 4.78359548,32.2907926 4.42944148,31.9337248 C4.29222998,31.5068152 4.02328131,31.2115544 3.84077413,30.8300287 C3.63575154,30.4709302 3.49827515,30.0442854 3.25210678,29.7263326 C2.32049897,27.5429569 1.55877207,25.1898768 1.33900411,22.2947495 C1.29291376,22.0710965 1.43321561,21.660963 1.2654538,21.5589815 C1.2654538,21.3873347 1.2654538,21.2155996 1.2654538,21.0439528 C1.43321561,20.941883 1.29291376,20.5317495 1.33900411,20.3081848 C1.55877207,17.4130575 2.32049897,15.0599774 3.25210678,12.8766016 C3.49827515,12.5586489 3.63566324,12.1320041 3.84077413,11.7729055 C4.02328131,11.3912916 4.29214168,11.0960308 4.42944148,10.6692094 C4.78359548,10.3121417 5.00760164,9.82483778 5.31239836,9.41832444 C5.64995277,8.89746817 6.10087885,8.48989528 6.41609446,7.94670021 C6.80132854,7.66971663 7.07848871,7.28457084 7.37260164,6.91655441 C8.19922587,6.29610062 8.92872485,5.57852156 9.80073306,5.00345175 C10.0593511,4.79604517 10.401232,4.67198973 10.6101396,4.41478439 C11.1400021,4.18433265 11.5650575,3.84907392 12.0817639,3.60537782 C12.3422361,3.44891786 12.6720205,3.36177002 12.8911704,3.16389938 Z M19.8076366,27.4452136 C19.9082936,28.2811971 19.1178706,28.8901725 19.2926078,29.7262444 C19.3558275,30.0288337 19.8010144,30.3610021 19.9548255,30.6092012 C20.4393922,31.3907947 20.5940862,32.4702094 21.0585216,33.4051725 C21.5407043,34.3758953 22.4509446,34.9949363 22.4565072,35.9804928 C21.3655257,36.3250226 20.3455339,35.4192854 19.6604476,34.8767967 C17.5432936,34.9206797 16.3465339,34.0476119 15.2456632,33.1844333 C13.3608152,31.70654 12.5358686,30.1035318 11.4930965,27.8131417 C11.0668049,26.8768542 10.5796776,25.2935359 9.87437166,24.7963429 C9.16862423,24.298885 8.21432444,24.3416201 7.51979055,23.913386 C6.80742094,23.4742033 6.29557084,23.050384 5.68032649,22.4418501 C6.95213758,22.5118686 7.92568583,22.2836242 8.69712526,21.8531828 C8.2887577,20.3065955 6.59789528,19.9429055 5.38603696,19.2043121 C4.90588501,18.9117002 4.63190349,18.410269 4.13515195,18.3213552 C4.86544559,19.7984538 6.52664066,20.3445626 7.51979055,21.5588932 C6.61776181,21.7359261 5.67652977,21.8737556 4.79736961,22.073922 C5.7680924,23.7275236 7.46072074,24.6592197 9.35934292,25.3850103 C10.7229815,27.6512957 11.4046242,30.5996653 13.2590986,32.375115 C13.4735688,32.6511273 13.7188542,32.8964127 13.9948665,33.110883 C15.435499,34.270117 16.7382136,35.5671807 19.2926078,35.6125647 C20.0321725,36.5045277 22.9785996,37.665616 23.1187248,35.8333039 C23.2018111,34.7476201 21.9705277,34.0247433 21.5735503,33.1844333 C20.8904949,31.7385914 20.7607002,30.1626016 19.8811869,29.5055051 C20.8497023,28.057191 20.5142669,23.1211971 18.6303018,23.324807 C17.7520246,23.4196366 18.0579692,24.5915852 17.6737947,25.31146 C17.2796427,24.1849836 16.5890821,23.3549158 15.6871417,22.7361396 C15.3982382,22.4110349 14.9607331,21.8449713 14.5834456,21.8531828 C14.9215298,22.079308 15.1283183,22.4364641 15.4664025,22.6625893 C16.2937331,23.9691006 17.1897577,25.2068296 17.6737947,26.8566345 C18.6221786,26.4804949 18.5540144,25.0879836 18.8510411,24.0605749 C19.4980719,24.4436899 19.6512649,25.3205544 19.8075483,26.1944168 C19.8076366,26.6113491 19.8076366,27.0282813 19.8076366,27.4452136 Z M19.2926078,33.6259117 C19.1445359,33.1608583 18.7129466,32.9793224 18.6303901,32.4486653 C17.9099856,32.7218522 18.3876653,33.8892977 19.2926078,33.6259117 Z" id="Shape" fill="#577FA2"></path>
                    <path d="M14.1268731,9.93326489 C13.8814698,10.3267988 14.6212952,10.9128172 13.7504073,11.1841499 C13.9953587,10.7905277 13.2555333,10.2045092 14.1268731,9.93326489 Z" id="Shape" fill="#ADC0D1"></path>
                    <path d="M23.8949358,15.0102669 C23.8949358,15.402653 23.8949358,15.7951273 23.8949358,16.1875133 C23.2282692,15.9642136 23.2282692,15.2335667 23.8949358,15.0102669 Z" id="Shape" fill="#FFCE92"></path>
                    <path d="M0.136466937,20.4551971 C0.374956449,20.2315441 -0.351020245,19.8214107 0.517045027,19.7194292 C0.278555516,19.9429938 1.00453221,20.3531273 0.136466937,20.4551971 Z" id="Shape" fill="#ADC0D1"></path>
                    <path d="M42.8863488,19.7193409 C43.7542992,19.8213224 43.0284934,20.2314559 43.2670769,20.4551088 C42.3986694,20.3531273 43.1249323,19.9429938 42.8863488,19.7193409 Z" id="Shape" fill="#ADC0D1"></path>
                    <path d="M1.14727027,20.0137187 C1.14727027,20.2590041 1.14727027,20.5042895 1.14727027,20.7494867 C1.00827027,20.7494867 0.869270271,20.7494867 0.730770271,20.7494867 C0.991770271,20.5258337 0.197270271,20.1157002 1.14727027,20.0137187 Z" id="Shape" fill="#ADC0D1"></path>
                    <path d="M42.2494867,20.0137187 C43.1994867,20.1157885 42.4049867,20.525922 42.6659867,20.7494867 C42.5274867,20.7494867 42.3879867,20.7494867 42.2494867,20.7494867 C42.2494867,20.5042012 42.2494867,20.2589158 42.2494867,20.0137187 Z" id="Shape" fill="#ADC0D1"></path>
                    <path d="M1.31371334,21.0437762 C1.55220286,20.8201232 0.826226162,20.4099897 1.69429143,20.3080082 C1.45580192,20.5316612 2.18177862,20.9417947 1.31371334,21.0437762 Z" id="Shape" fill="#ADC0D1"></path>
                    <path d="M0.676963039,20.7494867 C0.815963039,20.7494867 0.954963039,20.7494867 1.09346304,20.7494867 C1.09346304,21.1174148 1.09346304,21.4852546 1.09346304,21.8531828 C0.954463039,21.8531828 0.815463039,21.8531828 0.676963039,21.8531828 C0.676963039,21.4852546 0.676963039,21.1174148 0.676963039,20.7494867 Z" id="Shape" fill="#FEFEFE"></path>
                    <path d="M42.2494867,20.7494867 C42.3879867,20.7494867 42.5274867,20.7494867 42.6659867,20.7494867 C42.6659867,21.1174148 42.6659867,21.4852546 42.6659867,21.8531828 C42.5274867,21.8531828 42.3879867,21.8531828 42.2494867,21.8531828 C42.2494867,21.4852546 42.2494867,21.1174148 42.2494867,20.7494867 Z" id="Shape" fill="#FEFEFE"></path>
                    <path d="M1.31348671,21.5588932 C2.18212435,21.660963 1.45566897,22.0710082 1.69431573,22.2946612 C0.82613527,22.1926797 1.55259065,21.7824579 1.31348671,21.5588932 Z" id="Shape" fill="#ADC0D1"></path>
                    <path d="M0.730770271,21.8531828 C0.869770271,21.8531828 1.00877027,21.8531828 1.14727027,21.8531828 C1.14727027,22.0983799 1.14727027,22.3437536 1.14727027,22.5889507 C0.197270271,22.4869692 0.991770271,22.0768357 0.730770271,21.8531828 Z" id="Shape" fill="#ADC0D1"></path>
                    <path d="M42.2494867,21.8531828 C42.3879867,21.8531828 42.5274867,21.8531828 42.6659867,21.8531828 C42.4049867,22.0768357 43.1994867,22.4869692 42.2494867,22.5889507 C42.2494867,22.3437536 42.2494867,22.0983799 42.2494867,21.8531828 Z" id="Shape" fill="#ADC0D1"></path>
                    <path d="M0.136466937,22.1474723 C1.00453221,22.2494538 0.278555516,22.6596756 0.517045027,22.8833285 C-0.351020245,22.781347 0.374956449,22.3711253 0.136466937,22.1474723 Z" id="Shape" fill="#ADC0D1"></path>
                    <path d="M43.2670769,22.1474723 C43.0284934,22.3711253 43.7542992,22.781347 42.8863488,22.8833285 C43.1249323,22.6596756 42.3986694,22.2494538 43.2670769,22.1474723 Z" id="Shape" fill="#ADC0D1"></path>
                    <path d="M19.8076366,26.1944168 C20.4743032,26.4419979 20.4743032,27.1976324 19.8076366,27.4452136 C19.8076366,27.0282813 19.8076366,26.6113491 19.8076366,26.1944168 Z" id="Shape" fill="#ADC0D1"></path>
                    <path d="M29.3480748,32.4486653 C29.5899949,32.1768029 28.8574134,31.7156345 29.7273255,31.5657084 C29.4854054,31.8375708 30.2179869,32.2986509 29.3480748,32.4486653 Z" id="Shape" fill="#FFCE92"></path>
                    <path d="M11.4931848,2.48665298 C11.6774579,2.22315298 11.996117,2.11175298 12.3025914,1.98665298 C12.0834415,2.21065298 11.7536571,2.30945298 11.4931848,2.48665298 Z" id="Shape" fill="#ADC0D1"></path>
                    <path d="M9.212154,3.82611704 C9.40216632,3.55010472 9.73459959,3.41651335 10.0215606,3.23744969 C9.81274127,3.49465503 9.47086037,3.61879877 9.212154,3.82611704 Z" id="Shape" fill="#ADC0D1"></path>
                    <path d="M5.23884805,7.35794456 C5.74451745,6.80901027 6.19800411,6.20789322 6.78402259,5.73921971 C6.25883984,6.26864066 5.81065092,6.87514374 5.23884805,7.35794456 Z" id="Shape" fill="#ADC0D1"></path>
                    <path d="M3.25219507,10.0804538 C3.53067967,9.64771663 3.75901232,9.16473922 4.13515195,8.82956879 C3.83035524,9.23608214 3.60643737,9.72329774 3.25219507,10.0804538 Z" id="Shape" fill="#ADC0D1"></path>
                    <path d="M2.07494867,12.287846 C2.23626489,11.8850411 2.37992197,11.464577 2.66361602,11.1841499 C2.45859343,11.5431602 2.32111704,11.9698049 2.07494867,12.287846 Z" id="Shape" fill="#ADC0D1"></path>
                    <path d="M2.07494867,30.3148234 C2.32111704,30.6328645 2.45859343,31.0595092 2.66361602,31.4185195 C2.37992197,31.1380924 2.23626489,30.7177166 2.07494867,30.3148234 Z" id="Shape" fill="#ADC0D1"></path>
                    <path d="M4.13515195,33.7731006 C3.75901232,33.4379302 3.53067967,32.9549528 3.25219507,32.5222156 C3.60643737,32.8793717 3.83035524,33.3665873 4.13515195,33.7731006 Z" id="Shape" fill="#ADC0D1"></path>
                    <path d="M6.78402259,36.8634497 C6.19800411,36.3947762 5.74451745,35.7937474 5.23884805,35.2447248 C5.81065092,35.727614 6.25883984,36.3340287 6.78402259,36.8634497 Z" id="Shape" fill="#ADC0D1"></path>
                    <path d="M10.0215606,39.3651314 C9.73459959,39.1861561 9.40216632,39.0525647 9.212154,38.7765524 C9.47086037,38.9839589 9.81274127,39.1080144 10.0215606,39.3651314 Z" id="Shape" fill="#ADC0D1"></path>
                    <path d="M12.3025031,40.674538 C11.9960287,40.549438 11.6773696,40.438138 11.4930965,40.174538 C11.7536571,40.351738 12.0834415,40.450538 12.3025031,40.674538 Z" id="Shape" fill="#ADC0D1"></path>
                    <path d="M30.6974969,40.674538 C30.9165585,40.450538 31.2463429,40.351738 31.5068152,40.174538 C31.3225421,40.438138 31.0039713,40.549438 30.6974969,40.674538 Z" id="Shape" fill="#ADC0D1"></path>
                    <path d="M32.9784394,39.3651314 C33.1872587,39.1080144 33.5291396,38.9839589 33.787846,38.7765524 C33.5978337,39.0525647 33.2654004,39.1861561 32.9784394,39.3651314 Z" id="Shape" fill="#ADC0D1"></path>
                    <path d="M36.2159774,36.8634497 C36.7411602,36.3340287 37.1893491,35.727614 37.761152,35.2447248 C37.2554825,35.7937474 36.8019959,36.3947762 36.2159774,36.8634497 Z" id="Shape" fill="#ADC0D1"></path>
                    <path d="M39.7478049,32.5222156 C39.4693203,32.9549528 39.2409877,33.4379302 38.864848,33.7731006 C39.1696448,33.3665873 39.3935626,32.8793717 39.7478049,32.5222156 Z" id="Shape" fill="#ADC0D1"></path>
                    <path d="M40.9250513,30.3148234 C40.7637351,30.7176283 40.6201663,31.1380924 40.336384,31.4185195 C40.5414066,31.0595092 40.678883,30.6328645 40.9250513,30.3148234 Z" id="Shape" fill="#ADC0D1"></path>
                    <path d="M40.336384,11.1841499 C40.620078,11.464577 40.7637351,11.8850411 40.9250513,12.287846 C40.678883,11.9698049 40.5414066,11.5431602 40.336384,11.1841499 Z" id="Shape" fill="#ADC0D1"></path>
                    <path d="M38.864848,8.82956879 C39.2409877,9.16473922 39.4693203,9.64762834 39.7478049,10.0804538 C39.3935626,9.72329774 39.1696448,9.23608214 38.864848,8.82956879 Z" id="Shape" fill="#ADC0D1"></path>
                    <path d="M36.2159774,5.73921971 C36.8019959,6.20789322 37.2554825,6.80892197 37.761152,7.35794456 C37.1893491,6.87514374 36.7411602,6.26864066 36.2159774,5.73921971 Z" id="Shape" fill="#ADC0D1"></path>
                    <path d="M32.9784394,3.23753799 C33.2654004,3.41660164 33.5978337,3.55019302 33.787846,3.82620534 C33.5291396,3.61879877 33.1872587,3.49465503 32.9784394,3.23753799 Z" id="Shape" fill="#ADC0D1"></path>
                    <path d="M30.6974969,1.98665298 C31.0039713,2.11175298 31.3225421,2.22315298 31.5068152,2.48665298 C31.2463429,2.30945298 30.9165585,2.21065298 30.6974969,1.98665298 Z" id="Shape" fill="#ADC0D1"></path>
                    <path d="M9.50653183,4.41478439 C9.69654415,4.13877207 10.0289774,4.0051807 10.3159384,3.82611704 C10.1070308,4.08332238 9.7651499,4.20737782 9.50653183,4.41478439 Z" id="Shape" fill="#ADC0D1"></path>
                    <path d="M7.15195072,6.32788706 C7.44959548,5.91422177 7.87482752,5.62823203 8.25564682,5.29774127 C7.94369815,5.69701437 7.50963655,5.97426283 7.15195072,6.32788706 Z" id="Shape" fill="#ADC0D1"></path>
                    <path d="M3.84086242,10.3747433 C4.11934702,9.94200616 4.34767967,9.45902875 4.7238193,9.12385832 C4.41902259,9.53037166 4.19501643,10.0176756 3.84086242,10.3747433 Z" id="Shape" fill="#ADC0D1"></path>
                    <path d="M2.66361602,12.5821355 C2.82493224,12.1793306 2.96858932,11.7588665 3.25228337,11.4784394 C3.04717248,11.837538 2.90978439,12.2641828 2.66361602,12.5821355 Z" id="Shape" fill="#ADC0D1"></path>
                    <path d="M2.66361602,30.0205339 C2.90978439,30.3385749 3.04726078,30.7652197 3.25228337,31.12423 C2.96850103,30.8438029 2.82493224,30.4233388 2.66361602,30.0205339 Z" id="Shape" fill="#ADC0D1"></path>
                    <path d="M3.84086242,32.2279261 C4.19501643,32.5849938 4.41902259,33.0722977 4.7238193,33.4788111 C4.34767967,33.1436407 4.11934702,32.6606632 3.84086242,32.2279261 Z" id="Shape" fill="#ADC0D1"></path>
                    <path d="M7.15195072,36.2747823 C7.50963655,36.6284066 7.94369815,36.905655 8.25564682,37.3049281 C7.87482752,36.9745257 7.44959548,36.6885359 7.15195072,36.2747823 Z" id="Shape" fill="#ADC0D1"></path>
                    <path d="M9.50653183,38.187885 C9.7651499,38.3952916 10.1070308,38.519347 10.3159384,38.7765524 C10.0288891,38.5974887 9.69645585,38.4638973 9.50653183,38.187885 Z" id="Shape" fill="#ADC0D1"></path>
                    <path d="M32.6841499,38.7765524 C32.8929692,38.519347 33.2348501,38.3952916 33.4934682,38.187885 C33.3035441,38.4638973 32.9711109,38.5974887 32.6841499,38.7765524 Z" id="Shape" fill="#ADC0D1"></path>
                    <path d="M34.7443532,37.3049281 C35.0563018,36.905655 35.4903634,36.6284066 35.8480493,36.2747823 C35.5504928,36.6885359 35.1251725,36.9745257 34.7443532,37.3049281 Z" id="Shape" fill="#ADC0D1"></path>
                    <path d="M38.2761807,33.4788111 C38.5809774,33.0722977 38.8049836,32.5849938 39.1591376,32.2279261 C38.880653,32.6606632 38.6523203,33.1436407 38.2761807,33.4788111 Z" id="Shape" fill="#ADC0D1"></path>
                    <path d="M39.7478049,31.12423 C39.9527392,30.7652197 40.0903039,30.3385749 40.336384,30.0205339 C40.1751561,30.4233388 40.031499,30.8438029 39.7478049,31.12423 Z" id="Shape" fill="#ADC0D1"></path>
                    <path d="M40.336384,12.5821355 C40.0903039,12.2641828 39.9527392,11.837538 39.7478049,11.4784394 C40.031499,11.7588665 40.1751561,12.1793306 40.336384,12.5821355 Z" id="Shape" fill="#ADC0D1"></path>
                    <path d="M39.1591376,10.3747433 C38.8049836,10.0176756 38.5809774,9.53037166 38.2761807,9.12385832 C38.6523203,9.45902875 38.880653,9.94200616 39.1591376,10.3747433 Z" id="Shape" fill="#ADC0D1"></path>
                    <path d="M34.7443532,5.29774127 C35.1251725,5.62814374 35.5504928,5.91413347 35.8480493,6.32788706 C35.4903634,5.97426283 35.0563018,5.69701437 34.7443532,5.29774127 Z" id="Shape" fill="#ADC0D1"></path>
                    <path d="M33.4934682,4.41478439 C33.2348501,4.20737782 32.8929692,4.08332238 32.6841499,3.82611704 C32.9711109,4.0051807 33.3035441,4.13877207 33.4934682,4.41478439 Z" id="Shape" fill="#ADC0D1"></path>
                    <path d="M16.8644764,17.0704702 C17.1895811,17.3340329 17.4838706,17.6283224 17.7474333,17.9534271 C17.4223285,17.6899528 17.128039,17.3955749 16.8644764,17.0704702 Z" id="Shape" fill="#FFCE92"></path>
                    <path d="M26.2090739,23.3983573 C26.5587248,23.6864661 26.8775606,24.0053018 27.1656694,24.3548645 C26.8160185,24.0667556 26.4971828,23.7479199 26.2090739,23.3983573 Z" id="Shape" fill="#FFCE92"></path>
                    <path d="M32.3897721,38.187885 C32.5986797,37.930768 32.9405606,37.8066242 33.1991786,37.5992177 C33.0092546,37.87523 32.6767331,38.0089097 32.3897721,38.187885 Z" id="Shape" fill="#FFCE92"></path>
                    <path d="M33.787846,37.2313778 C34.7436468,36.396807 35.7024497,35.5650616 36.5838172,34.6560575 C35.765846,35.6285462 34.8123409,36.4653244 33.787846,37.2313778 Z" id="Shape" fill="#FFCE92"></path>
                    <path d="M38.5704702,31.9336366 C38.2920739,32.3663737 38.063653,32.8492628 37.6875133,33.1844333 C37.9923101,32.7779199 38.2163162,32.2907043 38.5704702,31.9336366 Z" id="Shape" fill="#FFCE92"></path>
                    <path d="M39.7478049,29.7262444 C39.5864887,30.1290493 39.4428316,30.5495133 39.1591376,30.8299405 C39.3641602,30.4708419 39.5016366,30.0441971 39.7478049,29.7262444 Z" id="Shape" fill="#FFCE92"></path>
                    <path d="M39.1591376,11.772729 C39.4428316,12.0531561 39.5864887,12.4736201 39.7478049,12.8764251 C39.5016366,12.5584723 39.3641602,12.1318275 39.1591376,11.772729 Z" id="Shape" fill="#FFCE92"></path>
                    <path d="M37.6875133,9.41823614 C38.063653,9.75340657 38.2919856,10.2362957 38.5704702,10.6691211 C38.2163162,10.3119651 37.9923101,9.82466119 37.6875133,9.41823614 Z" id="Shape" fill="#FFCE92"></path>
                    <path d="M33.787846,5.37129158 C34.8123409,6.13734497 35.765846,6.9741232 36.5838172,7.94661191 C35.7024497,7.0376078 34.7436468,6.20586242 33.787846,5.37129158 Z" id="Shape" fill="#FFCE92"></path>
                    <path d="M32.3897721,4.41478439 C32.6767331,4.59384805 33.0092546,4.72743943 33.1991786,5.00345175 C32.9405606,4.79604517 32.5986797,4.67198973 32.3897721,4.41478439 Z" id="Shape" fill="#FFCE92"></path>
                    <path d="M12.0817639,3.66389938 C12.266037,3.40029938 12.5846078,3.28899938 12.8911704,3.16389938 C12.6720205,3.38799938 12.3422361,3.48669938 12.0817639,3.66389938 Z" id="Shape" fill="#ADC0D1"></path>
                    <path d="M9.80082136,5.00345175 C9.99083368,4.72743943 10.3232669,4.59384805 10.6102279,4.41478439 C10.4013203,4.67198973 10.0594394,4.79604517 9.80082136,5.00345175 Z" id="Shape" fill="#ADC0D1"></path>
                    <path d="M6.41618275,7.94661191 C6.74331828,7.61152977 7.00749897,7.21349281 7.37268994,6.91646612 C7.07848871,7.28448255 6.80141684,7.66962834 6.41618275,7.94661191 Z" id="Shape" fill="#ADC0D1"></path>
                    <path d="M4.42952977,10.6690329 C4.70801437,10.2362074 4.93634702,9.75331828 5.31248665,9.41814784 C5.00760164,9.82466119 4.78368378,10.3119651 4.42952977,10.6690329 Z" id="Shape" fill="#ADC0D1"></path>
                    <path d="M3.25219507,12.8764251 C3.41351129,12.4736201 3.55716838,12.0531561 3.84086242,11.772729 C3.63583984,12.1318275 3.49836345,12.5584723 3.25219507,12.8764251 Z" id="Shape" fill="#ADC0D1"></path>
                    <path d="M3.25219507,29.7262444 C3.49836345,30.0441971 3.63575154,30.4708419 3.84086242,30.8299405 C3.55716838,30.5495133 3.41351129,30.1290493 3.25219507,29.7262444 Z" id="Shape" fill="#ADC0D1"></path>
                    <path d="M5.31248665,33.1844333 C4.93634702,32.8492628 4.70801437,32.3663737 4.42952977,31.9336366 C4.78368378,32.2907043 5.00760164,32.7779199 5.31248665,33.1844333 Z" id="Shape" fill="#ADC0D1"></path>
                    <path d="M7.37268994,35.6862033 C7.00741068,35.3892649 6.74331828,34.9911396 6.41618275,34.6560575 C6.80141684,34.9330411 7.07848871,35.3180986 7.37268994,35.6862033 Z" id="Shape" fill="#ADC0D1"></path>
                    <path d="M10.6102279,38.187885 C10.3232669,38.0089097 9.99083368,37.87523 9.80082136,37.5992177 C10.0594394,37.8066242 10.4013203,37.930768 10.6102279,38.187885 Z" id="Shape" fill="#ADC0D1"></path>
                    <path d="M12.8911704,39.4972916 C12.5846961,39.3720916 12.266037,39.2607916 12.0817639,38.9972916 C12.3422361,39.1743916 12.6720205,39.2732916 12.8911704,39.4972916 Z" id="Shape" fill="#ADC0D1"></path>
                    <path d="M25.2525667,38.923653 C25.467037,38.6476407 25.7123224,38.4023552 25.9883347,38.187885 C25.7738645,38.4639856 25.5286674,38.7091828 25.2525667,38.923653 Z" id="Shape" fill="#ADC0D1"></path>
                    <path d="M25.1053778,23.6926468 C25.4304825,23.9562094 25.7248604,24.250499 25.9883347,24.5756037 C25.66323,24.3121294 25.3689405,24.0177515 25.1053778,23.6926468 Z" id="Shape" fill="#ADC0D1"></path>
                    <path d="M27.9014374,19.8665298 C28.215152,20.0679322 28.3971294,20.4009836 28.7108439,20.6022977 C28.3673737,20.6255195 27.9403758,20.098306 27.6806982,19.7928912 C27.786653,19.7536879 27.8602033,20.0796756 27.9014374,19.8665298 Z" id="Shape" fill="#FFCE92"></path>
                    <path d="M30.0352793,10.0804538 C31.8892238,11.8564333 32.5742218,14.8013593 33.9349466,17.0705585 C35.8382485,17.7916694 37.5308768,18.7233655 38.4969199,20.3816468 C37.6095483,20.5734251 36.6907433,20.73377 35.774499,20.8966756 C36.7696797,22.1088871 38.4378501,22.6480205 39.1591376,24.1342136 C38.4544497,23.6650986 37.5510965,23.1451253 36.6574559,22.6626776 C35.7585175,22.1773162 34.9129979,21.5971253 34.5971643,20.6024743 C35.353152,20.1566694 36.3463018,19.9479384 37.613963,20.013807 C37.0453388,19.3268665 36.3907146,19.0302813 35.7008604,18.6158214 C34.995731,18.1920903 34.1074764,18.1438809 33.4199179,17.6593142 C32.7053409,17.1555873 32.2356961,15.5751828 31.801193,14.6425154 C30.7288419,12.3411766 29.9363881,10.751501 28.0486263,9.27122382 C26.9379548,8.40027515 25.7511725,7.54001027 23.6338419,7.57886037 C22.9487556,7.03645996 21.9287639,6.1306345 20.8377823,6.47516427 C20.8513799,7.45718891 21.7537618,8.08011499 22.235768,9.0504846 C22.7002916,9.98544764 22.8549856,11.0648624 23.3394641,11.8465441 C23.4921273,12.0927125 23.9392567,12.4304435 24.0016817,12.729501 C24.1764189,13.5655729 23.3859959,14.1745483 23.486653,15.0104435 C23.3643634,15.2337433 23.3643634,15.9643901 23.486653,16.1876899 C23.6100903,17.1188563 23.8037228,17.9799158 24.4431602,18.3950821 C24.6641643,17.3161088 24.7952834,16.1473388 25.473306,15.5254723 C26.1944168,17.0607577 26.9280657,18.5835934 27.9014374,19.8667064 C27.8602033,20.0798522 27.786653,19.7538645 27.6806982,19.7931561 C26.7629528,19.1411807 26.0224168,18.3120842 25.6204949,17.1442854 C25.2442669,17.8694579 25.545885,19.0435257 24.6638994,19.1309384 C22.7739302,19.3183901 22.4407023,14.4132998 23.4131027,12.9502402 C22.5283799,12.2936735 22.4043244,10.7181253 21.7207392,9.27122382 C21.3203183,8.42367351 20.0949507,7.7195154 20.1755647,6.62235318 C20.3106571,4.78456674 23.269269,5.95024641 24.0016817,6.8430924 C26.5561643,6.88856468 27.8588789,8.18562834 29.299423,9.34477413 C29.5138932,9.62069815 29.7591786,9.86598357 30.0352793,10.0804538 Z" id="Shape" fill="#FEFEFE"></path>
                    <path d="M29.299423,9.34459754 C29.5755236,9.55906776 29.820809,9.80435318 30.0352793,10.0803655 C29.7591786,9.86598357 29.5138932,9.62069815 29.299423,9.34459754 Z" id="Shape" fill="#FFCE92"></path>
                    <path d="M24.6638994,10.0068152 C24.5664209,9.49108008 24.1603491,9.28402669 24.0016817,8.82956879 C24.897,8.55655852 25.401963,9.75137577 24.6638994,10.0068152 Z" id="Shape" fill="#FEFEFE"></path>
                    <path d="M13.2590986,32.375115 C13.5351992,32.5895852 13.7804846,32.8347823 13.9948665,33.110883 C13.7187659,32.8964127 13.4735688,32.6511273 13.2590986,32.375115 Z" id="Shape" fill="#ADC0D1"></path>
                    <path d="M15.4664908,22.6625893 C15.1284066,22.4364641 14.9216181,22.079308 14.5835339,21.8531828 C14.9608214,21.8449713 15.3983265,22.4110349 15.68723,22.7361396 C15.5811869,22.7754312 15.5076366,22.4494435 15.4664908,22.6625893 Z" id="Shape" fill="#ADC0D1"></path>
                    <path d="M13.2590986,32.375115 C11.4046242,30.5996653 10.7229815,27.6512957 9.35934292,25.3850103 C7.46072074,24.6592197 5.7681807,23.7275236 4.79736961,22.073922 C5.67644148,21.8737556 6.61776181,21.7359261 7.51979055,21.5588932 C6.52664066,20.3446509 4.86544559,19.7985421 4.13515195,18.3213552 C4.6318152,18.410269 4.90588501,18.9117002 5.38603696,19.2043121 C6.59789528,19.9429055 8.2887577,20.3065955 8.69712526,21.8531828 C7.92577413,22.2836242 6.95222587,22.5118686 5.68032649,22.4418501 C6.29557084,23.050384 6.80742094,23.4742033 7.51979055,23.913386 C8.21432444,24.3416201 9.16862423,24.298885 9.87437166,24.7963429 C10.5796776,25.2935359 11.0668049,26.8767659 11.4930965,27.8131417 C12.5358686,30.1035318 13.3608152,31.70654 15.2456632,33.1844333 C16.3465339,34.0476119 17.5432936,34.9206797 19.6604476,34.8767967 C20.3454456,35.4192854 21.3654374,36.3250226 22.4565072,35.9804928 C22.4509446,34.9949363 21.5407043,34.3758953 21.0585216,33.4051725 C20.5940862,32.4702094 20.4393922,31.3907947 19.9548255,30.6092012 C19.8010144,30.3610021 19.3558275,30.0288337 19.2926078,29.7262444 C19.1179589,28.8901725 19.9082936,28.2811971 19.8076366,27.4452136 C19.9299261,27.1976324 19.9299261,26.4419979 19.8076366,26.1944168 C19.6513532,25.3205544 19.4981602,24.4436899 18.8511294,24.0605749 C18.5541027,25.0879836 18.6221786,26.4804949 17.673883,26.8566345 C17.189846,25.2068296 16.2938214,23.9691006 15.4664908,22.6625893 C15.5077248,22.4494435 15.5812752,22.7754312 15.68723,22.7361396 C16.5891704,23.3549158 17.279731,24.1849836 17.673883,25.31146 C18.0581458,24.5915852 17.7522012,23.4196366 18.6303901,23.324807 C20.5143552,23.1211971 20.8497906,28.057191 19.8812752,29.5055051 C20.7607885,30.1626016 20.8905832,31.7385914 21.5736386,33.1844333 C21.970616,34.0247433 23.2018994,34.7476201 23.1188131,35.8333039 C22.9786879,37.665616 20.0322608,36.5045277 19.2926961,35.6125647 C16.7383018,35.5671807 15.4355873,34.270117 13.9949548,33.110883 C13.7803963,32.8347823 13.5351109,32.5895852 13.2590986,32.375115 Z" id="Shape" fill="#FEFEFE"></path>
                    <path d="M18.6303901,32.4486653 C18.7129466,32.9793224 19.1445359,33.1608583 19.2926078,33.6259117 C18.3876653,33.8892977 17.9099856,32.7218522 18.6303901,32.4486653 Z" id="Shape" fill="#FEFEFE"></path>
                    <path d="M20.249115,0.99675154 C20.9119507,0.330084873 22.087961,0.330084873 22.7507967,0.99675154 C21.9170205,0.99675154 21.0830678,0.99675154 20.249115,0.99675154 Z" id="Shape" fill="#ADC0D1"></path>
                    <path d="M20.249115,42.0140021 C21.0829795,42.0140021 21.9169322,42.0140021 22.7507967,42.0140021 C22.087961,42.6806687 20.912039,42.6806687 20.249115,42.0140021 Z" id="Shape" fill="#ADC0D1"></path>
                </g>
            </g>
        </g>
    </g>
</svg>