<?xml version="1.0" encoding="UTF-8"?>
<svg width="40px" height="44px" viewBox="0 0 40 44" version="1.1" xmlns="http://www.w3.org/2000/svg" xmlns:xlink="http://www.w3.org/1999/xlink">
    <!-- Generator: Sketch 50.2 (55047) - http://www.bohemiancoding.com/sketch -->
    <title>nodejs</title>
    <desc>Created with Sketch.</desc>
    <defs></defs>
    <g id="Page-1" stroke="none" stroke-width="1" fill="none" fill-rule="evenodd">
        <g id="About" transform="translate(-868.000000, -658.000000)" fill="#8CC84B" fill-rule="nonzero">
            <g id="Group-2" transform="translate(798.000000, 321.000000)">
                <g id="nodejs" transform="translate(70.000000, 337.000000)">
                    <path d="M18.20375,0.559375 C19.2915625,-0.06328125 20.7084375,-0.06609375 21.7953125,0.559375 C27.2632813,3.6490625 32.7329687,6.73390625 38.2,9.82546872 C39.2282813,10.4046875 39.9160938,11.5490625 39.905625,12.7339062 L39.905625,31.3226562 C39.9132813,32.5565625 39.1575,33.7282813 38.0726562,34.294375 C32.6226562,37.3670313 27.1754687,40.4434375 21.7264062,43.5160938 C20.6160938,44.1509375 19.1707813,44.1020313 18.0951562,43.4151562 C16.46125,42.4679687 14.8245313,41.5254687 13.1904687,40.5792187 C12.8565625,40.3801562 12.4801562,40.2217187 12.244375,39.8979687 C12.4528125,39.6170313 12.8254687,39.5820313 13.1282813,39.459375 C13.8103125,39.2425 14.4367187,38.894375 15.0632813,38.5565625 C15.2217187,38.448125 15.4151562,38.4896875 15.5670313,38.5867187 C16.9642187,39.3878125 18.3490625,40.2121875 19.7509375,41.005625 C20.05,41.1782813 20.3528125,40.9490625 20.6084375,40.8065625 C25.9565625,37.7839062 31.31125,34.7726562 36.6584375,31.7490625 C36.8565625,31.65375 36.9660938,31.4434375 36.95,31.2264062 C36.95375,25.094375 36.9509375,18.96125 36.951875,12.8292187 C36.9745313,12.5829687 36.8320313,12.3565625 36.609375,12.2557813 C31.1782813,9.19718752 25.75,6.13390625 20.3198438,3.07453125 C20.1272707,2.94213953 19.8731165,2.94176706 19.6801562,3.07359375 C14.25,6.13390625 8.82265624,9.2 3.3925,12.2584375 C3.170625,12.359375 3.02171875,12.5820313 3.048125,12.8292187 C3.0490625,18.96125 3.048125,25.094375 3.048125,31.2273438 C3.02884011,31.4442281 3.14668298,31.6501725 3.3434375,31.7434375 C4.7925,32.5651562 6.2434375,33.3810938 7.6934375,34.2 C8.51031248,34.6396875 9.51328128,34.9009375 10.4132813,34.5640625 C11.2075,34.2792187 11.7642187,33.46875 11.7490625,32.6254687 C11.7565625,26.5292187 11.7453125,20.4320313 11.7546875,14.3367187 C11.7348438,14.0660938 11.9915625,13.8425 12.2546875,13.8679687 C12.9509375,13.8632813 13.648125,13.8585938 14.344375,13.8698438 C14.635,13.8632813 14.835,14.1546875 14.7990625,14.4273438 C14.79625,20.5621875 14.8065625,26.6971875 14.794375,32.8320313 C14.79625,34.4670313 14.1245313,36.2460938 12.6121875,37.0460938 C10.7490625,38.01125 8.44625,37.8065625 6.605625,36.8810938 C5.0121875,36.0857813 3.4915625,35.1471875 1.92640625,34.2951562 C0.83875,33.7321875 0.0867187504,32.5557813 0.094375,31.3228125 L0.094375,12.7339062 C0.0829687496,11.5245313 0.798125,10.359375 1.8584375,9.78859376 C7.3075,6.7134375 12.755625,3.6359375 18.20375,0.559375 Z" id="Shape"></path>
                    <path d="M22.9575,13.4359375 C25.3340625,13.2829687 27.8782813,13.3453125 30.016875,14.5160938 C31.6726562,15.4132813 32.590625,17.29625 32.6198438,19.1357813 C32.5735938,19.3839062 32.3142187,19.5207813 32.0773438,19.50375 C31.3878125,19.5028125 30.698125,19.513125 30.0085938,19.4990625 C29.7160938,19.5103125 29.5460938,19.240625 29.509375,18.9820313 C29.31125,18.101875 28.83125,17.2301562 28.0028125,16.805625 C26.7310938,16.1689062 25.2565625,16.2009375 23.8698438,16.2142187 C22.8575,16.2679687 21.7689062,16.355625 20.91125,16.9509375 C20.2528125,17.401875 20.0528125,18.3121875 20.2878125,19.0453125 C20.509375,19.5717187 21.1170313,19.7415625 21.6142187,19.898125 C24.4782813,20.6471875 27.5132813,20.5726562 30.3226562,21.5584375 C31.4857813,21.9603125 32.6235938,22.7415625 33.0217187,23.959375 C33.5425,25.5915625 33.3142187,27.5425 32.1529687,28.8528125 C31.21125,29.9310938 29.8396875,30.5179687 28.4717187,30.8367187 C26.651875,31.2425 24.7632813,31.2528125 22.9151562,31.0726562 C21.1773438,30.8745313 19.3689062,30.4179687 18.0273438,29.2339062 C16.8801562,28.2378125 16.3198438,26.6857813 16.3754687,25.1878125 C16.38875,24.9348438 16.640625,24.7584375 16.8829687,24.7792187 C17.5773438,24.7735938 18.2717187,24.7717187 18.9660938,24.7801562 C19.2434375,24.7603125 19.4490625,25 19.4632813,25.2614062 C19.5914062,26.1 19.9065625,26.9801562 20.6378125,27.4773438 C22.0490625,28.3878125 23.8198438,28.3254687 25.4357813,28.3509375 C26.7745313,28.2915625 28.2773438,28.2735938 29.3698438,27.38875 C29.94625,26.8840625 30.1170313,26.0396875 29.96125,25.3132813 C29.7925,24.7 29.1509375,24.4142187 28.6,24.2273438 C25.7726562,23.3329687 22.70375,23.6575 19.90375,22.6460938 C18.7670313,22.244375 17.6678125,21.4848438 17.2310938,20.3170313 C16.6217187,18.6642187 16.9009375,16.6198438 18.1839062,15.35375 C19.4348438,14.094375 21.240625,13.609375 22.9575,13.4357813 L22.9575,13.4359375 Z" id="Shape"></path>
                </g>
            </g>
        </g>
    </g>
</svg>