<?xml version="1.0" encoding="UTF-8"?>
<svg width="45px" height="41px" viewBox="0 0 45 41" version="1.1" xmlns="http://www.w3.org/2000/svg" xmlns:xlink="http://www.w3.org/1999/xlink">
    <!-- Generator: Sketch 50.2 (55047) - http://www.bohemiancoding.com/sketch -->
    <title>react</title>
    <desc>Created with Sketch.</desc>
    <defs></defs>
    <g id="Page-1" stroke="none" stroke-width="1" fill="none" fill-rule="evenodd">
        <g id="About" transform="translate(-803.000000, -660.000000)" fill-rule="nonzero">
            <g id="Group-2" transform="translate(798.000000, 321.000000)">
                <g id="react" transform="translate(4.000000, 339.000000)">
                    <path d="M37.2626953,13.5613281 C36.7929626,13.4002007 36.3192446,13.2509346 35.8419922,13.1136719 C35.9211378,12.7920714 35.9943274,12.4690344 36.0615234,12.1447266 C37.1369141,6.92441406 36.4337891,2.71894531 34.0326172,1.33457031 C31.7304687,0.00683594 27.9652344,1.39121094 24.1625,4.70039063 C23.7877897,5.02721545 23.4213967,5.36345555 23.0636719,5.70878906 C22.8241133,5.47916274 22.5803215,5.2539939 22.3324219,5.03339844 C18.3470703,1.49472656 14.3523437,0.00371094 11.9537109,1.3921875 C9.6537109,2.72363281 8.9724609,6.67734375 9.940625,11.6246094 C10.0369506,12.114533 10.1457096,12.6019299 10.2667969,13.0863281 C9.7015625,13.246875 9.1556641,13.4179687 8.6333984,13.6 C3.96113281,15.2289062 0.97714844,17.7820312 0.97714844,20.4300781 C0.97714844,23.1652344 4.18027344,25.9085937 9.0470703,27.571875 C9.4416957,27.7061192 9.8396057,27.8305068 10.2404297,27.9449219 C10.1102152,28.4667852 9.9946102,28.9921856 9.89375,29.5205078 C8.9707031,34.3818359 9.6916016,38.2417969 11.9855469,39.5650391 C14.3548828,40.93125 18.3314453,39.5269531 22.2037109,36.1421875 C22.5097656,35.8746094 22.8169922,35.5908203 23.1246094,35.2933594 C23.5120746,35.6671991 23.9098853,36.0301656 24.3175781,36.3818359 C28.0683594,39.609375 31.7726562,40.9126953 34.0646484,39.5859375 C36.4318359,38.215625 37.2009766,34.0689453 36.2021484,29.0238281 C36.1259766,28.6384766 36.0371094,28.2449219 35.9375,27.8441406 C36.2167969,27.7617187 36.4908203,27.6765625 36.7582031,27.5878906 C41.8175781,25.9117187 45.1091797,23.2017578 45.1091797,20.4300781 C45.1091797,17.7724609 42.0291016,15.2021484 37.2626953,13.5613281 Z" id="Shape" fill="#53C1DE"></path>
                    <path d="M36.1652344,25.7984375 C35.9240234,25.8783203 35.6763672,25.9554688 35.4240234,26.0302734 C34.8654297,24.2621094 34.1115234,22.3818359 33.1892578,20.4394531 C34.0695313,18.5429688 34.7941406,16.6869141 35.3371094,14.9300781 C35.7884766,15.0609375 36.2267578,15.1986328 36.6490234,15.3441406 C40.7330078,16.7498047 43.2240234,18.8285156 43.2240234,20.4300781 C43.2240234,22.1361328 40.5335938,24.3509766 36.1654297,25.7984375 L36.1652344,25.7984375 Z M34.3527344,29.3900391 C34.7943359,31.6208984 34.8574219,33.6378906 34.5648438,35.2146484 C34.3019531,36.6314453 33.7734375,37.5759766 33.1199219,37.9542969 C31.7291016,38.759375 28.7546875,37.7128906 25.5472656,34.9527344 C25.1794922,34.6363281 24.8089844,34.2984375 24.4375,33.9410156 C25.6810547,32.5808594 26.9238281,30.9996094 28.1367188,29.24375 C30.2703125,29.0544922 32.2859375,28.7449219 34.1138672,28.3224609 C34.2037109,28.6857422 34.2837891,29.0417969 34.3527344,29.3900391 Z M16.0226563,37.8152344 C14.6638672,38.2951172 13.5816406,38.3087891 12.9275391,37.9316406 C11.5353516,37.1289062 10.9568359,34.0292969 11.7460938,29.8720703 C11.8399492,29.3807735 11.9474124,28.8921742 12.0683594,28.4068359 C13.8759766,28.8066406 15.8769531,29.0943359 18.015625,29.2677734 C19.2365234,30.9859375 20.5152344,32.5652344 21.8039063,33.9482422 C21.5300292,34.2131765 21.2496708,34.4713276 20.9630859,34.7224609 C19.2507813,36.2193359 17.5349609,37.2810547 16.0228516,37.8152344 L16.0226563,37.8152344 Z M9.6568359,25.7878906 C7.50488281,25.0523438 5.72773438,24.0964844 4.50957031,23.0535156 C3.41503906,22.1160156 2.86230469,21.1853516 2.86230469,20.4300781 C2.86230469,18.8232422 5.25820313,16.7734375 9.2541016,15.3802734 C9.7556444,15.2061753 10.2621764,15.0467971 10.7730469,14.9023438 C11.3253906,16.6986328 12.0498047,18.5767578 12.9240234,20.4759766 C12.0384766,22.4035156 11.3037109,24.3115234 10.7462891,26.1289063 C10.3803987,26.0241782 10.017138,25.910472 9.6568359,25.7878906 Z M11.7908203,11.2625 C10.9613281,7.02363281 11.5121094,3.82617188 12.8982422,3.02382812 C14.3748047,2.16914062 17.6394531,3.38789062 21.0804688,6.44316406 C21.3003906,6.63847656 21.5212891,6.84296875 21.7425781,7.05449219 C20.4605469,8.43125 19.1935547,9.9986328 17.9832031,11.7068359 C15.9076172,11.8992188 13.9207031,12.2082031 12.0941406,12.6220703 C11.9816257,12.1714355 11.8804868,11.7180363 11.7908203,11.2623047 L11.7908203,11.2625 Z M30.8273438,15.9630859 C30.3959135,15.2178574 29.948479,14.4820096 29.4853516,13.7560547 C30.8935547,13.9337891 32.2425781,14.1701172 33.509375,14.459375 C33.1291016,15.6783203 32.6550781,16.9529297 32.096875,18.2595703 C31.6890268,17.4857011 31.2657653,16.7200537 30.8273438,15.9630859 Z M23.0642578,8.4017578 C23.9337891,9.34375 24.8046875,10.3957031 25.6613281,11.5369141 C23.9236349,11.4548008 22.1830424,11.4544098 20.4453125,11.5357422 C21.3027344,10.4050781 22.1810547,9.3546875 23.0642578,8.4017578 Z M15.2513672,15.9759766 C14.8184348,16.7269242 14.4030873,17.4878736 14.0056641,18.2582031 C13.4566406,16.9560547 12.9869141,15.6757813 12.6033203,14.4394531 C13.8625,14.1576172 15.2052734,13.9273438 16.6042969,13.7525391 C16.1359792,14.4829931 15.6848783,15.2243432 15.2513672,15.9759766 Z M16.6445313,27.2421875 C15.1992188,27.0808594 13.8361328,26.8623047 12.5773437,26.5882812 C12.9669922,25.3300781 13.4470703,24.0222656 14.0078125,22.6921875 C14.4069112,23.463088 14.8240838,24.2244964 15.2589844,24.9757812 C15.7027561,25.7421539 16.1647363,26.4978373 16.6445313,27.2421875 Z M23.1164063,32.5916016 C22.2228516,31.6273437 21.3316406,30.5609375 20.4611328,29.4138672 C21.3060547,29.4470703 22.1675781,29.4638672 23.0431641,29.4638672 C23.9427734,29.4638672 24.8320312,29.44375 25.7072266,29.4046875 C24.8478516,30.5726562 23.9800781,31.640625 23.1164063,32.5916016 Z M32.1148438,22.6244141 C32.7046875,23.9689453 33.2019531,25.2697266 33.596875,26.5066406 C32.3171875,26.7986328 30.9357422,27.0337891 29.4800781,27.2083984 C29.946553,26.4688894 30.39827,25.7201736 30.8349609,24.9626953 C31.2788839,24.1928605 31.7056172,23.4132403 32.1148438,22.6244141 Z M29.2017578,24.0208984 C28.5332422,25.182218 27.8271399,26.3214919 27.0845703,27.4369141 C25.7751953,27.5304687 24.4220703,27.5787109 23.0431641,27.5787109 C21.6699219,27.5787109 20.3339844,27.5359375 19.0474609,27.4525391 C18.2856321,26.339714 17.5661724,25.1984683 16.890625,24.03125 C16.2182352,22.8702245 15.5901785,21.6840833 15.0078125,20.4753906 C15.5886973,19.2663358 16.2148561,18.0795593 16.8849609,16.9175781 L16.8849609,16.9179687 C17.5548556,15.7557401 18.2686513,14.6193742 19.0248047,13.5113281 C20.3373047,13.4121094 21.6830078,13.3601562 23.0433594,13.3601562 C24.4097656,13.3601562 25.7572266,13.4125 27.0693359,13.5125 C27.817841,14.618841 28.5270714,15.7512514 29.1957031,16.9076172 C29.8681123,18.0670131 30.5026275,19.2479762 31.0982422,20.4486328 C30.5087543,21.6615222 29.8762571,22.8530326 29.2019531,24.0208984 L29.2017578,24.0208984 Z M33.0910156,2.96777344 C34.56875,3.82011719 35.1435547,7.25703125 34.2150391,11.7642578 C34.1541798,12.0578764 34.0880232,12.350372 34.0166016,12.6416016 C32.1857422,12.2191406 30.1974609,11.9046875 28.1158203,11.709375 C26.903125,9.9826172 25.6466797,8.4125 24.3853516,7.05351562 C24.7158717,6.73487264 25.0542574,6.42449042 25.4001953,6.12265625 C28.6583984,3.28710937 31.7035156,2.16757812 33.0910156,2.96777344 Z" id="Shape" fill="#FFFFFF"></path>
                    <path d="M23.0431641,16.4892578 C25.2197266,16.4892578 26.9839844,18.2537109 26.9839844,20.4300781 C26.9839844,22.6066406 25.2197266,24.3710938 23.0431641,24.3710938 C20.8667969,24.3710938 19.1023438,22.6066406 19.1023438,20.4300781 C19.1023438,18.2537109 20.8667969,16.4892578 23.0431641,16.4892578" id="Shape" fill="#53C1DE"></path>
                </g>
            </g>
        </g>
    </g>
</svg>