<?xml version="1.0" encoding="UTF-8"?>
<svg width="45px" height="41px" viewBox="0 0 45 41" version="1.1" xmlns="http://www.w3.org/2000/svg" xmlns:xlink="http://www.w3.org/1999/xlink">
    <!-- Generator: Sketch 50.2 (55047) - http://www.bohemiancoding.com/sketch -->
    <title>sketch</title>
    <desc>Created with Sketch.</desc>
    <defs></defs>
    <g id="Page-1" stroke="none" stroke-width="1" fill="none" fill-rule="evenodd">
        <g id="About" transform="translate(-928.000000, -660.000000)" fill-rule="nonzero">
            <g id="Group-2" transform="translate(798.000000, 321.000000)">
                <g id="sketch" transform="translate(130.000000, 339.000000)">
                    <g id="Base" fill="#FFAE00">
                        <polygon id="Polygon" transform="translate(22.500000, 20.359311) rotate(180.000000) translate(-22.500000, -20.359311) " points="22.5 -8.99999998e-07 45 26.1437238 35.2530364 39.3522259 22.5 40.7186226 9.74696355 39.3522259 -7.10542736e-15 26.1437238"></polygon>
                    </g>
                    <g id="Bottom-Back" transform="translate(0.000000, 14.574899)" fill="#EC6C00">
                        <polygon id="Polygon" transform="translate(22.500000, 13.071861) rotate(180.000000) translate(-22.500000, -13.071861) " points="22.5 -9.00000001e-07 45 26.1437238 -7.10542736e-15 26.1437238"></polygon>
                    </g>
                    <g id="Bottom-Mid" transform="translate(9.109311, 14.574899)" fill="#FFAE00">
                        <polygon id="Polygon" transform="translate(13.390689, 13.071861) rotate(180.000000) translate(-13.390689, -13.071861) " points="13.3906891 -9.00000003e-07 26.7813774 26.1437238 8.99999999e-07 26.1437238"></polygon>
                    </g>
                    <g id="Top-Mid" transform="translate(9.109311, 0.000000)" fill="#FFEFB4">
                        <polygon id="Polygon" transform="translate(13.390689, 7.287449) rotate(180.000000) translate(-13.390689, -7.287449) " points="13.3906892 14.5748988 26.7813774 2.52025121e-13 8.99999999e-07 0"></polygon>
                    </g>
                    <g id="Top-Side-Left" transform="translate(0.000000, 1.366397)" fill="#FFAE00">
                        <polygon id="Polygon" transform="translate(4.873482, 6.604252) rotate(180.000000) translate(-4.873482, -6.604252) " points="4.49999999e-07 13.2085026 5.01012191 6.55870499 9.746964 5.40000242e-07 0.546559154 5.39999999e-07"></polygon>
                    </g>
                    <g id="Top-Side-Right" transform="translate(40.050000, 8.116397) scale(-1, 1) translate(-40.050000, -8.116397) translate(35.100000, 1.366397)" fill="#FFAE00">
                        <polygon id="Polygon" transform="translate(4.873482, 6.604252) rotate(180.000000) translate(-4.873482, -6.604252) " points="4.49999999e-07 13.2085026 5.01012191 6.55870499 9.746964 5.40000242e-07 0.546559154 5.39999999e-07"></polygon>
                    </g>
                    <g id="Top-Left" transform="translate(9.109311, 0.000000)" fill="#FED305">
                        <polygon id="Polygon" transform="translate(6.695344, 7.287449) rotate(180.000000) translate(-6.695344, -7.287449) " points="12.753036 13.2085021 13.3906878 0 -4.50000001e-07 14.5748988"></polygon>
                    </g>
                    <g id="Top-Right" transform="translate(22.500000, 0.000000)" fill="#FED305">
                        <polygon id="Polygon" points="12.7530364 13.2085021 13.3906882 -1.43834562e-15 -1.43834562e-15 14.5748988"></polygon>
                    </g>
                </g>
            </g>
        </g>
    </g>
</svg>